<?xml version="1.0" encoding="UTF-8" standalone="no"?>
<svg
   xmlns:dc="http://purl.org/dc/elements/1.1/"
   xmlns:cc="http://creativecommons.org/ns#"
   xmlns:rdf="http://www.w3.org/1999/02/22-rdf-syntax-ns#"
   xmlns:svg="http://www.w3.org/2000/svg"
   xmlns="http://www.w3.org/2000/svg"
   xmlns:sodipodi="http://sodipodi.sourceforge.net/DTD/sodipodi-0.dtd"
   xmlns:inkscape="http://www.inkscape.org/namespaces/inkscape"
   id="svg1434"
   version="1.1"
   viewBox="0 0 67.733334 33.866666"
   height="128"
   width="256"
   sodipodi:docname="logo-alt-2.svg"
   inkscape:version="0.92.2 2405546, 2018-03-11">
  <sodipodi:namedview
     pagecolor="#ffffff"
     bordercolor="#666666"
     borderopacity="1"
     objecttolerance="10"
     gridtolerance="10"
     guidetolerance="10"
     inkscape:pageopacity="0"
     inkscape:pageshadow="2"
     inkscape:window-width="1922"
     inkscape:window-height="1054"
     id="namedview18"
     showgrid="false"
     inkscape:zoom="1.84375"
     inkscape:cx="62.372881"
     inkscape:cy="107.38983"
     inkscape:window-x="546"
     inkscape:window-y="190"
     inkscape:window-maximized="0"
     inkscape:current-layer="svg1434" />
  <defs
     id="defs1428">
    <clipPath
       id="clipPath11622"
       clipPathUnits="userSpaceOnUse">
      <g
         id="g11624"
         transform="matrix(0.96968375,0,0,0.96968375,2344.6611,919.3584)">
        <g
           id="g11626">
          <path
             id="path11628"
             d="m -1380.549,-396.694 c -11.948,0 -14.193,17.022 -7.469,17.022 6.721,0.001 19.421,-17.022 7.469,-17.022 z"
             style="fill:#2e3436" />
          <path
             id="path11630"
             d="m -1400.394,-381.782 c 3.582,0.22 7.508,-13.66 0.78,-12.788 -6.726,0.873 -4.361,12.571 -0.78,12.788 z"
             style="fill:#2e3436" />
          <path
             id="path11632"
             d="m -1416.799,-373.157 c 2.545,-1.122 0.327,-12.084 -4.003,-9.092 -4.327,2.991 1.458,10.212 4.003,9.092 z"
             style="fill:#2e3436" />
          <path
             id="path11634"
             d="m -1409.627,-378.894 c 3.032,-0.619 3.197,-13.05 -2.206,-10.82 -5.406,2.23 -0.821,11.438 2.206,10.82 z"
             style="fill:#2e3436" />
          <path
             id="path11636"
             d="m -1393.798,-351.072 c 0.537,4.105 -3.014,6.134 -6.491,3.487 -11.07,-8.428 18.329,-12.634 16.39,-24.147 -1.606,-9.558 -30.933,-6.617 -34.273,8.34 -2.261,10.114 9.305,24.147 21.371,24.147 5.938,0 12.785,-5.361 14.067,-12.151 0.977,-5.179 -11.514,-3.102 -11.064,0.324 z"
             style="fill:#2e3436" />
        </g>
      </g>
    </clipPath>
  </defs>
  <metadata
     id="metadata1431">
    <rdf:RDF>
      <cc:Work
         rdf:about="">
        <dc:format>image/svg+xml</dc:format>
        <dc:type
           rdf:resource="http://purl.org/dc/dcmitype/StillImage" />
        <dc:title />
      </cc:Work>
    </rdf:RDF>
  </metadata>
  <path
     id="path897"
     style="font-style:normal;font-weight:normal;font-size:medium;line-height:1.25;font-family:sans-serif;letter-spacing:0px;word-spacing:0px;fill:#4a86cf;fill-opacity:1;stroke:none;stroke-width:0.87278575"
     d="m 15.69753,28.011893 c 2.76964,0 5.05052,-1.107856 6.38646,-2.476384 v -8.993184 h -6.77747 v 2.248296 h 4.2685 v 5.571864 c -0.8146,0.782016 -2.21571,1.270776 -3.71457,1.270776 -4.20334,0 -6.58197,-3.388736 -6.58197,-8.765096 0,-5.311192 2.6393,-8.6347602 6.64713,-8.6347602 2.0528,0 3.32357,0.847184 4.36626,1.9550402 l 1.53145,-1.7269522 c -1.20561,-1.270776 -3.0629,-2.60672 -5.89771,-2.60672 -5.53928,0 -9.48194,4.1707522 -9.48194,11.0785602 0,6.972976 3.8775,11.07856 9.25386,11.07856 z"
     inkscape:connector-curvature="0" />
  <path
     id="path899"
     style="font-style:normal;font-variant:normal;font-weight:normal;font-stretch:normal;font-size:medium;line-height:1.25;font-family:'Source Code Pro';-inkscape-font-specification:'Source Code Pro';letter-spacing:0px;word-spacing:0px;fill:#4d4d4d;fill-opacity:1;stroke:none;stroke-width:0.87278575"
     d="m 33.24757,28.011893 c 5.3112,0 7.07073,-3.2584 7.07073,-7.233648 V 6.2131968 H 28.65323 v 2.28088 h 8.9606 V 20.550157 c 0,3.519072 -1.36853,5.083104 -4.43142,5.083104 -1.66179,0 -3.38874,-0.912352 -4.59435,-2.834808 l -1.69437,1.661784 c 1.46628,2.4438 3.97525,3.551656 6.35388,3.551656 z"
     inkscape:connector-curvature="0" />
  <path
     id="path901"
     style="font-style:normal;font-variant:normal;font-weight:normal;font-stretch:normal;font-size:medium;line-height:1.25;font-family:'Source Code Pro';-inkscape-font-specification:'Source Code Pro';letter-spacing:0px;word-spacing:0px;fill:#4d4d4d;fill-opacity:1;stroke:none;stroke-width:0.87278575"
     d="m 53.73018,28.011893 c 4.6921,0 7.55949,-2.704472 7.55949,-6.093208 0,-3.160648 -2.08538,-4.626928 -4.72468,-5.7022 l -2.99773,-1.30336 c -1.8247,-0.749432 -3.81233,-1.498864 -3.81233,-3.551656 0,-1.9224562 1.66179,-3.1280642 4.13817,-3.1280642 2.21571,0 3.84491,0.782016 5.24603,2.0202082 l 1.43369,-1.7595362 c -1.56403,-1.564032 -3.91008,-2.639304 -6.58197,-2.639304 -4.073,0 -7.00556,2.411216 -7.00556,5.6696162 0,3.128064 2.47639,4.659512 4.62693,5.506696 l 3.0629,1.335944 c 2.18313,0.944936 3.84491,1.596616 3.84491,3.877496 0,1.987624 -1.72695,3.388736 -4.65951,3.388736 -2.4438,0 -4.65951,-1.075272 -6.25613,-2.671888 l -1.6292,1.889872 c 1.92246,1.922456 4.62693,3.160648 7.75499,3.160648 z"
     inkscape:connector-curvature="0" />
</svg>
